# xmcd
#
# Track frame offsets:
#	150
#	14147
#	28672
#	41617
#	57817
#	73200
#	91282
#	105597
#	121017
#	138260
#	155605
#	171375
#	186457
#	203375
#	217872
#	231960
#	246660
#	261972
#	282557
#	295192
#	307870
#	322722
#
# Disc length: 4532 seconds
#
# Revision: 1
# Processed by: cddbd v1.5.2PL0 Copyright (c) Steve Scherf et al.
# Submitted via: audiograbber 1.82.02
#
DISCID=4311b216
DTITLE=Sweetbox - Complete Best [CD2)
DYEAR=2007
DGENRE=R&B
TTITLE0=Shout (Let It All Out)
TTITLE1=Life Is Cool (Futah Remix)
TTITLE2=Boyfriend
TTITLE3=That Night
TTITLE4=A Whole New World
TTITLE5=Real Emotion
TTITLE6=Bold and Delicious
TTITLE7=Pride 
TTITLE8=Every Time (All Grown Up Version)
TTITLE9=Booyah, Here We Go (Hotpants Radio Mix)
TTITLE10=Crown Of Thorns
TTITLE11=Over and Over
TTITLE12=Killing Me DJ
TTITLE13=After The Lights
TTITLE14=Shakalaka (Video Version)
TTITLE15=Chyna Girl
TTITLE16=Beautiful
TTITLE17=The Winner Takes It All
TTITLE18=Every Step
TTITLE19=Vaya Con Dios
TTITLE20=Time Of My Life
TTITLE21=Read My Mind (Crystal Edition)
EXTD=
EXTT0=
EXTT1=
EXTT2=
EXTT3=
EXTT4=
EXTT5=
EXTT6=
EXTT7=
EXTT8=
EXTT9=
EXTT10=
EXTT11=
EXTT12=
EXTT13=
EXTT14=
EXTT15=
EXTT16=
EXTT17=
EXTT18=
EXTT19=
EXTT20=
EXTT21=
PLAYORDER=
